<svg xmlns="http://www.w3.org/2000/svg" xmlns:xlink="http://www.w3.org/1999/xlink" width="500" zoomAndPan="magnify" viewBox="0 0 375 374.999991" height="500" preserveAspectRatio="xMidYMid meet" version="1.0"><defs><g/></defs><g fill="#000000" fill-opacity="1"><g transform="translate(19.615812, 177.240092)"><g><path d="M 9.921875 7.796875 C 10.128906 8.003906 10.234375 8.171875 10.234375 8.296875 C 10.234375 8.429688 10.113281 8.5 9.875 8.5 C 9.0625 8.5 8.394531 7.273438 7.875 4.828125 C 7.582031 3.554688 7.414062 2.222656 7.375 0.828125 L 7.375 -0.03125 C 4.707031 -0.3125 2.546875 -1.175781 0.890625 -2.625 C -0.691406 -4.019531 -1.503906 -5.75 -1.546875 -7.8125 C -1.628906 -10.320312 -0.863281 -12.726562 0.75 -15.03125 C 3.132812 -18.476562 6.710938 -20.769531 11.484375 -21.90625 C 13.035156 -22.257812 14.664062 -22.4375 16.375 -22.4375 L 16.5625 -22.4375 C 16.019531 -23.175781 15.628906 -24.019531 15.390625 -24.96875 C 12.273438 -25.644531 9.734375 -26.703125 7.765625 -28.140625 C 5.804688 -29.585938 4.398438 -31.273438 3.546875 -33.203125 C 3.429688 -33.421875 3.375 -33.660156 3.375 -33.921875 C 3.375 -34.179688 3.46875 -34.3125 3.65625 -34.3125 C 3.84375 -34.3125 4.035156 -34.070312 4.234375 -33.59375 C 6.046875 -29.539062 9.71875 -26.9375 15.25 -25.78125 C 15.226562 -25.882812 15.21875 -25.992188 15.21875 -26.109375 C 15.21875 -26.222656 15.21875 -26.34375 15.21875 -26.46875 C 15.175781 -29.425781 16.109375 -32.128906 18.015625 -34.578125 C 20.679688 -37.984375 24.394531 -40.222656 29.15625 -41.296875 C 30.582031 -41.628906 31.992188 -41.796875 33.390625 -41.796875 C 36.609375 -41.796875 39.113281 -41.222656 40.90625 -40.078125 C 42.695312 -38.941406 43.59375 -37.347656 43.59375 -35.296875 C 43.59375 -33.765625 43.035156 -32.328125 41.921875 -30.984375 C 40.804688 -29.640625 39.304688 -28.472656 37.421875 -27.484375 C 33.296875 -25.335938 28.421875 -24.265625 22.796875 -24.265625 C 21.046875 -24.265625 19.414062 -24.363281 17.90625 -24.5625 C 18.101562 -23.78125 18.429688 -23.03125 18.890625 -22.3125 C 20.835938 -22.09375 22.3125 -21.703125 23.3125 -21.140625 C 24.320312 -20.578125 24.835938 -19.984375 24.859375 -19.359375 C 24.859375 -18.722656 24.367188 -18.40625 23.390625 -18.40625 C 21.265625 -18.40625 19.273438 -19.390625 17.421875 -21.359375 C 13.566406 -20.941406 9.9375 -19.191406 6.53125 -16.109375 C 4.445312 -14.179688 2.984375 -12.15625 2.140625 -10.03125 C 1.722656 -8.9375 1.53125 -7.734375 1.5625 -6.421875 C 1.59375 -5.109375 2.097656 -3.914062 3.078125 -2.84375 C 4.066406 -1.78125 5.519531 -1.101562 7.4375 -0.8125 C 7.75 -4.46875 9.195312 -7.738281 11.78125 -10.625 C 14.425781 -13.582031 17.351562 -15.0625 20.5625 -15.0625 C 21.8125 -15.0625 22.898438 -14.65625 23.828125 -13.84375 C 24.753906 -13.03125 25.21875 -11.957031 25.21875 -10.625 C 25.21875 -9.289062 24.804688 -7.953125 23.984375 -6.609375 C 23.171875 -5.265625 22.050781 -4.097656 20.625 -3.109375 C 17.539062 -0.992188 13.78125 0.0625 9.34375 0.0625 L 8.265625 0.03125 C 8.242188 0.1875 8.234375 0.335938 8.234375 0.484375 L 8.234375 0.921875 C 8.234375 2.953125 8.570312 4.820312 9.25 6.53125 C 9.488281 7.164062 9.710938 7.585938 9.921875 7.796875 Z M 17.78125 -25.359375 C 18.894531 -25.203125 20.289062 -25.125 21.96875 -25.125 C 23.65625 -25.125 25.285156 -25.238281 26.859375 -25.46875 C 28.429688 -25.695312 29.96875 -26.03125 31.46875 -26.46875 C 32.96875 -26.90625 34.382812 -27.441406 35.71875 -28.078125 C 37.050781 -28.710938 38.210938 -29.4375 39.203125 -30.25 C 41.390625 -32.039062 42.484375 -34.019531 42.484375 -36.1875 C 42.484375 -37.601562 41.769531 -38.757812 40.34375 -39.65625 C 38.851562 -40.59375 37.15625 -41.0625 35.25 -41.0625 C 33.351562 -41.0625 31.726562 -40.820312 30.375 -40.34375 C 29.019531 -39.863281 27.71875 -39.222656 26.46875 -38.421875 C 25.226562 -37.628906 24.082031 -36.71875 23.03125 -35.6875 C 21.976562 -34.65625 21.066406 -33.570312 20.296875 -32.4375 C 18.617188 -30.050781 17.78125 -27.832031 17.78125 -25.78125 Z M 19.546875 -21.421875 C 20.921875 -19.867188 22.320312 -19.09375 23.75 -19.09375 C 24.070312 -19.09375 24.234375 -19.191406 24.234375 -19.390625 C 24.234375 -19.585938 24.109375 -19.789062 23.859375 -20 C 23.609375 -20.207031 23.273438 -20.414062 22.859375 -20.625 C 21.878906 -21.082031 20.773438 -21.347656 19.546875 -21.421875 Z M 8.296875 -0.71875 C 8.691406 -0.675781 9.253906 -0.65625 9.984375 -0.65625 C 10.722656 -0.65625 11.648438 -0.832031 12.765625 -1.1875 C 13.878906 -1.550781 14.96875 -2.023438 16.03125 -2.609375 C 17.101562 -3.191406 18.109375 -3.863281 19.046875 -4.625 C 19.992188 -5.394531 20.828125 -6.203125 21.546875 -7.046875 C 23.078125 -8.835938 23.84375 -10.40625 23.84375 -11.75 C 23.84375 -12.59375 23.53125 -13.234375 22.90625 -13.671875 C 22.289062 -14.109375 21.445312 -14.328125 20.375 -14.328125 C 19.300781 -14.328125 18.082031 -14.003906 16.71875 -13.359375 C 15.363281 -12.710938 14.085938 -11.789062 12.890625 -10.59375 C 10.203125 -7.863281 8.671875 -4.570312 8.296875 -0.71875 Z M 8.296875 -0.71875 "/></g></g></g><g fill="#000000" fill-opacity="1"><g transform="translate(53.23957, 177.240092)"><g><path d="M 5.15625 -2.34375 C 5.15625 -1.414062 5.546875 -0.953125 6.328125 -0.953125 C 7.117188 -0.953125 7.988281 -1.191406 8.9375 -1.671875 C 9.882812 -2.148438 10.847656 -2.753906 11.828125 -3.484375 C 12.816406 -4.222656 13.785156 -5.039062 14.734375 -5.9375 L 17.34375 -8.53125 C 18.132812 -9.34375 18.816406 -10.078125 19.390625 -10.734375 L 20.625 -12.109375 L 21.21875 -11.609375 C 20.832031 -11.265625 20.320312 -10.738281 19.6875 -10.03125 L 17.546875 -7.640625 C 12.691406 -2.503906 8.515625 0.0625 5.015625 0.0625 C 3.878906 0.0625 2.96875 -0.210938 2.28125 -0.765625 C 1.59375 -1.328125 1.25 -2.078125 1.25 -3.015625 C 1.25 -5.972656 5.566406 -10.347656 14.203125 -16.140625 C 9.984375 -16.835938 7.066406 -17.546875 5.453125 -18.265625 C 4.140625 -15.554688 2.125 -12.800781 -0.59375 -10 C -1.226562 -9.34375 -1.617188 -8.984375 -1.765625 -8.921875 C -1.921875 -8.859375 -2.019531 -8.8125 -2.0625 -8.78125 C -2.101562 -8.757812 -2.128906 -8.816406 -2.140625 -8.953125 C -2.160156 -9.085938 -2.160156 -9.191406 -2.140625 -9.265625 C -2.128906 -9.335938 -2.09375 -9.410156 -2.03125 -9.484375 C -1.09375 -10.535156 -0.226562 -11.550781 0.5625 -12.53125 C 2.414062 -14.84375 3.78125 -16.890625 4.65625 -18.671875 C 3.9375 -19.128906 3.523438 -19.617188 3.421875 -20.140625 C 3.328125 -20.660156 3.332031 -21.144531 3.4375 -21.59375 C 3.550781 -22.039062 3.726562 -22.441406 3.96875 -22.796875 C 4.488281 -23.566406 5.085938 -23.953125 5.765625 -23.953125 C 7.015625 -23.953125 7.640625 -23.5 7.640625 -22.59375 C 7.640625 -22.132812 7.550781 -21.742188 7.375 -21.421875 L 6.828125 -20.5 C 6.472656 -20.039062 6.296875 -19.515625 6.296875 -18.921875 C 6.296875 -18.554688 7.054688 -18.210938 8.578125 -17.890625 C 10.097656 -17.578125 11.175781 -17.363281 11.8125 -17.25 C 13.207031 -16.988281 14.3125 -16.835938 15.125 -16.796875 C 15.6875 -16.773438 15.96875 -16.625 15.96875 -16.34375 C 15.96875 -16.164062 15.644531 -15.816406 15 -15.296875 C 14.351562 -14.785156 13.640625 -14.160156 12.859375 -13.421875 C 12.085938 -12.691406 11.332031 -11.921875 10.59375 -11.109375 C 9.851562 -10.304688 9.15625 -9.488281 8.5 -8.65625 C 7.84375 -7.820312 7.265625 -7.015625 6.765625 -6.234375 C 5.691406 -4.566406 5.15625 -3.269531 5.15625 -2.34375 Z M 5.15625 -2.34375 "/></g></g></g><g fill="#000000" fill-opacity="1"><g transform="translate(73.646536, 177.240092)"><g><path d="M 13.421875 -4.796875 C 12.691406 -4.796875 12.15625 -5.097656 11.8125 -5.703125 C 9.445312 -3.015625 6.890625 -1.234375 4.140625 -0.359375 C 3.234375 -0.078125 2.34375 0.0625 1.46875 0.0625 C 0.601562 0.0625 -0.132812 -0.0351562 -0.75 -0.234375 C -1.363281 -0.429688 -1.867188 -0.710938 -2.265625 -1.078125 C -3.878906 -2.460938 -4.039062 -4.859375 -2.75 -8.265625 C -2.25 -9.597656 -1.601562 -10.835938 -0.8125 -11.984375 C -0.03125 -13.140625 0.847656 -14.210938 1.828125 -15.203125 C 2.816406 -16.191406 3.878906 -17.070312 5.015625 -17.84375 C 7.578125 -19.570312 10.082031 -20.4375 12.53125 -20.4375 C 13.582031 -20.4375 14.488281 -20.160156 15.25 -19.609375 C 16.019531 -19.066406 16.4375 -18.28125 16.5 -17.25 C 16.5625 -16.226562 16.5 -15.269531 16.3125 -14.375 C 16.132812 -13.488281 15.867188 -12.597656 15.515625 -11.703125 C 14.796875 -9.867188 13.78125 -8.132812 12.46875 -6.5 C 12.613281 -5.925781 13 -5.640625 13.625 -5.640625 C 14.25 -5.640625 14.84375 -5.78125 15.40625 -6.0625 C 15.976562 -6.351562 16.546875 -6.710938 17.109375 -7.140625 C 17.679688 -7.566406 18.238281 -8.046875 18.78125 -8.578125 C 19.332031 -9.109375 19.835938 -9.609375 20.296875 -10.078125 L 21.421875 -11.34375 C 21.742188 -11.71875 21.972656 -11.972656 22.109375 -12.109375 L 22.765625 -11.609375 C 22.503906 -11.367188 22.175781 -11.03125 21.78125 -10.59375 C 21.382812 -10.15625 20.9375 -9.6875 20.4375 -9.1875 C 20.4375 -9.1875 19.910156 -8.671875 18.859375 -7.640625 C 16.804688 -5.742188 14.992188 -4.796875 13.421875 -4.796875 Z M 1.046875 -1.078125 C 1.359375 -0.910156 1.804688 -0.828125 2.390625 -0.828125 C 3.679688 -0.828125 5.34375 -1.554688 7.375 -3.015625 C 8.925781 -4.128906 10.304688 -5.410156 11.515625 -6.859375 L 11.515625 -6.984375 C 11.515625 -8.671875 12.148438 -9.941406 13.421875 -10.796875 C 13.765625 -11.035156 14.082031 -11.207031 14.375 -11.3125 C 15.332031 -13.34375 15.78125 -15.003906 15.71875 -16.296875 C 15.601562 -18.335938 14.847656 -19.359375 13.453125 -19.359375 C 11.109375 -19.359375 7.816406 -16.710938 3.578125 -11.421875 C 0.859375 -8.003906 -0.421875 -5.34375 -0.265625 -3.4375 C -0.265625 -2.34375 0.171875 -1.554688 1.046875 -1.078125 Z M 1.046875 -1.078125 "/></g></g></g><g fill="#000000" fill-opacity="1"><g transform="translate(95.545239, 177.240092)"><g><path d="M -2.984375 -1.734375 C -2.984375 -1.128906 -2.503906 -0.816406 -1.546875 -0.796875 C -0.597656 -0.785156 0.359375 -1 1.328125 -1.4375 C 2.296875 -1.875 3.253906 -2.429688 4.203125 -3.109375 C 5.160156 -3.785156 6.085938 -4.546875 6.984375 -5.390625 C 7.878906 -6.234375 8.710938 -7.070312 9.484375 -7.90625 C 10.265625 -8.738281 10.960938 -9.523438 11.578125 -10.265625 L 13.125 -12.109375 L 13.78125 -11.609375 L 12.234375 -9.8125 C 6.679688 -3.226562 2.015625 0.0625 -1.765625 0.0625 C -2.859375 0.0625 -3.675781 -0.15625 -4.21875 -0.59375 C -4.769531 -1.03125 -5.046875 -1.507812 -5.046875 -2.03125 C -5.046875 -2.550781 -5.019531 -2.976562 -4.96875 -3.3125 C -4.914062 -3.644531 -4.8125 -4.015625 -4.65625 -4.421875 C -4.5 -4.835938 -4.265625 -5.320312 -3.953125 -5.875 C -3.640625 -6.4375 -3.226562 -7.113281 -2.71875 -7.90625 L 1.9375 -14.625 L 9.640625 -25.453125 L 7.28125 -25.453125 C 6.6875 -25.453125 6.390625 -25.59375 6.390625 -25.875 C 6.390625 -26.164062 6.765625 -26.3125 7.515625 -26.3125 L 10.234375 -26.3125 L 15.75 -34.078125 C 17.144531 -33.859375 18.53125 -33.859375 19.90625 -34.078125 L 14.140625 -26.3125 L 21.84375 -26.3125 C 22.394531 -26.3125 22.671875 -26.164062 22.671875 -25.875 C 22.671875 -25.59375 22.425781 -25.453125 21.9375 -25.453125 L 13.484375 -25.453125 L 1.140625 -8.65625 C -0.992188 -5.644531 -2.210938 -3.789062 -2.515625 -3.09375 C -2.828125 -2.40625 -2.984375 -1.953125 -2.984375 -1.734375 Z M -2.984375 -1.734375 "/></g></g></g><g fill="#000000" fill-opacity="1"><g transform="translate(108.463684, 177.240092)"><g><path d="M 15.796875 -26.96875 C 15.503906 -26.71875 15.179688 -26.515625 14.828125 -26.359375 C 14.472656 -26.210938 14.066406 -26.140625 13.609375 -26.140625 C 13.148438 -26.140625 12.753906 -26.3125 12.421875 -26.65625 C 12.097656 -27.007812 11.9375 -27.40625 11.9375 -27.84375 C 11.9375 -28.28125 12.015625 -28.664062 12.171875 -29 C 12.328125 -29.34375 12.546875 -29.640625 12.828125 -29.890625 C 13.410156 -30.492188 14.039062 -30.796875 14.71875 -30.796875 C 15.40625 -30.796875 15.910156 -30.609375 16.234375 -30.234375 C 16.566406 -29.867188 16.734375 -29.46875 16.734375 -29.03125 C 16.734375 -28.59375 16.648438 -28.203125 16.484375 -27.859375 C 16.316406 -27.523438 16.085938 -27.226562 15.796875 -26.96875 Z M -3.15625 -1.71875 C -3.15625 -1.09375 -2.566406 -0.78125 -1.390625 -0.78125 C -0.222656 -0.78125 0.878906 -1.046875 1.921875 -1.578125 C 2.960938 -2.117188 4.015625 -2.789062 5.078125 -3.59375 C 6.148438 -4.394531 7.179688 -5.273438 8.171875 -6.234375 L 10.859375 -8.921875 C 11.660156 -9.753906 12.316406 -10.472656 12.828125 -11.078125 C 13.347656 -11.691406 13.65625 -12.046875 13.75 -12.140625 L 14.359375 -11.609375 C 14.148438 -11.410156 13.769531 -10.988281 13.21875 -10.34375 C 12.675781 -9.695312 12 -8.9375 11.1875 -8.0625 C 10.375 -7.195312 9.457031 -6.285156 8.4375 -5.328125 C 7.425781 -4.378906 6.363281 -3.507812 5.25 -2.71875 C 2.6875 -0.863281 0.441406 0.0625 -1.484375 0.0625 C -2.722656 0.0625 -3.707031 -0.160156 -4.4375 -0.609375 C -5.175781 -1.054688 -5.546875 -1.566406 -5.546875 -2.140625 C -5.546875 -2.722656 -5.484375 -3.242188 -5.359375 -3.703125 C -5.242188 -4.160156 -5.023438 -4.707031 -4.703125 -5.34375 C -4.390625 -5.976562 -3.945312 -6.722656 -3.375 -7.578125 C -2.8125 -8.429688 -2.078125 -9.453125 -1.171875 -10.640625 C -0.273438 -11.835938 0.820312 -13.222656 2.125 -14.796875 L 6.71875 -20.234375 C 6.957031 -20.171875 7.441406 -20.140625 8.171875 -20.140625 L 9.578125 -20.140625 C 10.097656 -20.140625 10.515625 -20.160156 10.828125 -20.203125 C 4.242188 -12.347656 0.539062 -7.875 -0.28125 -6.78125 C -1.101562 -5.695312 -1.71875 -4.847656 -2.125 -4.234375 C -2.8125 -3.179688 -3.15625 -2.34375 -3.15625 -1.71875 Z M -3.15625 -1.71875 "/></g></g></g><g fill="#000000" fill-opacity="1"><g transform="translate(121.978823, 177.240092)"><g><path d="M 15.390625 -17.9375 C 15.359375 -19.082031 14.632812 -19.65625 13.21875 -19.65625 C 10.332031 -19.65625 6.601562 -16.65625 2.03125 -10.65625 C 0.132812 -8.144531 -0.8125 -5.875 -0.8125 -3.84375 C -0.8125 -2.96875 -0.570312 -2.300781 -0.09375 -1.84375 C 0.738281 -1.070312 1.804688 -0.6875 3.109375 -0.6875 C 4.421875 -0.6875 5.804688 -0.953125 7.265625 -1.484375 C 8.722656 -2.023438 10.078125 -2.703125 11.328125 -3.515625 C 12.585938 -4.335938 13.734375 -5.226562 14.765625 -6.1875 C 15.804688 -7.15625 16.703125 -8.0625 17.453125 -8.90625 C 18.210938 -9.75 18.8125 -10.46875 19.25 -11.0625 C 19.6875 -11.664062 19.941406 -12.015625 20.015625 -12.109375 L 20.671875 -11.609375 L 19.875 -10.53125 C 16.132812 -5.613281 11.957031 -2.320312 7.34375 -0.65625 C 5.789062 -0.101562 4.328125 0.171875 2.953125 0.171875 C 1.578125 0.171875 0.503906 0.0351562 -0.265625 -0.234375 C -1.046875 -0.515625 -1.691406 -0.894531 -2.203125 -1.375 C -3.203125 -2.34375 -3.703125 -3.554688 -3.703125 -5.015625 C -3.703125 -7.859375 -2.46875 -10.753906 0 -13.703125 C 1.925781 -16.003906 4.210938 -17.769531 6.859375 -19 C 9.003906 -20 11.09375 -20.476562 13.125 -20.4375 C 14.914062 -20.375 16.050781 -19.769531 16.53125 -18.625 C 17.007812 -17.445312 16.75 -16.367188 15.75 -15.390625 C 15.09375 -14.710938 14.457031 -14.375 13.84375 -14.375 C 12.414062 -14.375 11.679688 -14.960938 11.640625 -16.140625 C 11.617188 -16.703125 11.832031 -17.164062 12.28125 -17.53125 C 12.726562 -17.894531 13.171875 -18.097656 13.609375 -18.140625 C 14.242188 -18.179688 14.835938 -18.070312 15.390625 -17.8125 Z M 15.390625 -17.9375 "/></g></g></g><g fill="#000000" fill-opacity="1"><g transform="translate(141.818929, 177.240092)"><g/></g></g><g fill="#000000" fill-opacity="1"><g transform="translate(162.792755, 177.240092)"><g><path d="M 9.921875 7.796875 C 10.128906 8.003906 10.234375 8.171875 10.234375 8.296875 C 10.234375 8.429688 10.113281 8.5 9.875 8.5 C 9.0625 8.5 8.394531 7.273438 7.875 4.828125 C 7.582031 3.554688 7.414062 2.222656 7.375 0.828125 L 7.375 -0.03125 C 4.707031 -0.3125 2.546875 -1.175781 0.890625 -2.625 C -0.691406 -4.019531 -1.503906 -5.75 -1.546875 -7.8125 C -1.628906 -10.320312 -0.863281 -12.726562 0.75 -15.03125 C 3.132812 -18.476562 6.710938 -20.769531 11.484375 -21.90625 C 13.035156 -22.257812 14.664062 -22.4375 16.375 -22.4375 L 16.5625 -22.4375 C 16.019531 -23.175781 15.628906 -24.019531 15.390625 -24.96875 C 12.273438 -25.644531 9.734375 -26.703125 7.765625 -28.140625 C 5.804688 -29.585938 4.398438 -31.273438 3.546875 -33.203125 C 3.429688 -33.421875 3.375 -33.660156 3.375 -33.921875 C 3.375 -34.179688 3.46875 -34.3125 3.65625 -34.3125 C 3.84375 -34.3125 4.035156 -34.070312 4.234375 -33.59375 C 6.046875 -29.539062 9.71875 -26.9375 15.25 -25.78125 C 15.226562 -25.882812 15.21875 -25.992188 15.21875 -26.109375 C 15.21875 -26.222656 15.21875 -26.34375 15.21875 -26.46875 C 15.175781 -29.425781 16.109375 -32.128906 18.015625 -34.578125 C 20.679688 -37.984375 24.394531 -40.222656 29.15625 -41.296875 C 30.582031 -41.628906 31.992188 -41.796875 33.390625 -41.796875 C 36.609375 -41.796875 39.113281 -41.222656 40.90625 -40.078125 C 42.695312 -38.941406 43.59375 -37.347656 43.59375 -35.296875 C 43.59375 -33.765625 43.035156 -32.328125 41.921875 -30.984375 C 40.804688 -29.640625 39.304688 -28.472656 37.421875 -27.484375 C 33.296875 -25.335938 28.421875 -24.265625 22.796875 -24.265625 C 21.046875 -24.265625 19.414062 -24.363281 17.90625 -24.5625 C 18.101562 -23.78125 18.429688 -23.03125 18.890625 -22.3125 C 20.835938 -22.09375 22.3125 -21.703125 23.3125 -21.140625 C 24.320312 -20.578125 24.835938 -19.984375 24.859375 -19.359375 C 24.859375 -18.722656 24.367188 -18.40625 23.390625 -18.40625 C 21.265625 -18.40625 19.273438 -19.390625 17.421875 -21.359375 C 13.566406 -20.941406 9.9375 -19.191406 6.53125 -16.109375 C 4.445312 -14.179688 2.984375 -12.15625 2.140625 -10.03125 C 1.722656 -8.9375 1.53125 -7.734375 1.5625 -6.421875 C 1.59375 -5.109375 2.097656 -3.914062 3.078125 -2.84375 C 4.066406 -1.78125 5.519531 -1.101562 7.4375 -0.8125 C 7.75 -4.46875 9.195312 -7.738281 11.78125 -10.625 C 14.425781 -13.582031 17.351562 -15.0625 20.5625 -15.0625 C 21.8125 -15.0625 22.898438 -14.65625 23.828125 -13.84375 C 24.753906 -13.03125 25.21875 -11.957031 25.21875 -10.625 C 25.21875 -9.289062 24.804688 -7.953125 23.984375 -6.609375 C 23.171875 -5.265625 22.050781 -4.097656 20.625 -3.109375 C 17.539062 -0.992188 13.78125 0.0625 9.34375 0.0625 L 8.265625 0.03125 C 8.242188 0.1875 8.234375 0.335938 8.234375 0.484375 L 8.234375 0.921875 C 8.234375 2.953125 8.570312 4.820312 9.25 6.53125 C 9.488281 7.164062 9.710938 7.585938 9.921875 7.796875 Z M 17.78125 -25.359375 C 18.894531 -25.203125 20.289062 -25.125 21.96875 -25.125 C 23.65625 -25.125 25.285156 -25.238281 26.859375 -25.46875 C 28.429688 -25.695312 29.96875 -26.03125 31.46875 -26.46875 C 32.96875 -26.90625 34.382812 -27.441406 35.71875 -28.078125 C 37.050781 -28.710938 38.210938 -29.4375 39.203125 -30.25 C 41.390625 -32.039062 42.484375 -34.019531 42.484375 -36.1875 C 42.484375 -37.601562 41.769531 -38.757812 40.34375 -39.65625 C 38.851562 -40.59375 37.15625 -41.0625 35.25 -41.0625 C 33.351562 -41.0625 31.726562 -40.820312 30.375 -40.34375 C 29.019531 -39.863281 27.71875 -39.222656 26.46875 -38.421875 C 25.226562 -37.628906 24.082031 -36.71875 23.03125 -35.6875 C 21.976562 -34.65625 21.066406 -33.570312 20.296875 -32.4375 C 18.617188 -30.050781 17.78125 -27.832031 17.78125 -25.78125 Z M 19.546875 -21.421875 C 20.921875 -19.867188 22.320312 -19.09375 23.75 -19.09375 C 24.070312 -19.09375 24.234375 -19.191406 24.234375 -19.390625 C 24.234375 -19.585938 24.109375 -19.789062 23.859375 -20 C 23.609375 -20.207031 23.273438 -20.414062 22.859375 -20.625 C 21.878906 -21.082031 20.773438 -21.347656 19.546875 -21.421875 Z M 8.296875 -0.71875 C 8.691406 -0.675781 9.253906 -0.65625 9.984375 -0.65625 C 10.722656 -0.65625 11.648438 -0.832031 12.765625 -1.1875 C 13.878906 -1.550781 14.96875 -2.023438 16.03125 -2.609375 C 17.101562 -3.191406 18.109375 -3.863281 19.046875 -4.625 C 19.992188 -5.394531 20.828125 -6.203125 21.546875 -7.046875 C 23.078125 -8.835938 23.84375 -10.40625 23.84375 -11.75 C 23.84375 -12.59375 23.53125 -13.234375 22.90625 -13.671875 C 22.289062 -14.109375 21.445312 -14.328125 20.375 -14.328125 C 19.300781 -14.328125 18.082031 -14.003906 16.71875 -13.359375 C 15.363281 -12.710938 14.085938 -11.789062 12.890625 -10.59375 C 10.203125 -7.863281 8.671875 -4.570312 8.296875 -0.71875 Z M 8.296875 -0.71875 "/></g></g></g><g fill="#000000" fill-opacity="1"><g transform="translate(196.416512, 177.240092)"><g><path d="M -2.890625 -1.765625 C -2.890625 -1.109375 -2.410156 -0.78125 -1.453125 -0.78125 C -0.503906 -0.78125 0.507812 -1.03125 1.59375 -1.53125 C 2.675781 -2.039062 3.75 -2.679688 4.8125 -3.453125 C 5.882812 -4.234375 6.914062 -5.085938 7.90625 -6.015625 C 8.90625 -6.941406 9.8125 -7.820312 10.625 -8.65625 L 12.6875 -10.859375 C 13.238281 -11.492188 13.613281 -11.910156 13.8125 -12.109375 L 14.40625 -11.609375 C 14.1875 -11.390625 13.785156 -10.953125 13.203125 -10.296875 C 12.617188 -9.640625 11.898438 -8.882812 11.046875 -8.03125 C 10.203125 -7.175781 9.257812 -6.269531 8.21875 -5.3125 C 7.175781 -4.351562 6.085938 -3.476562 4.953125 -2.6875 C 2.304688 -0.851562 -0.0078125 0.0625 -2 0.0625 C -2.832031 0.0625 -3.519531 -0.164062 -4.0625 -0.625 C -4.613281 -1.082031 -4.890625 -1.570312 -4.890625 -2.09375 C -4.890625 -2.625 -4.863281 -3.046875 -4.8125 -3.359375 C -4.769531 -3.679688 -4.664062 -4.046875 -4.5 -4.453125 C -4.34375 -4.867188 -4.113281 -5.347656 -3.8125 -5.890625 C -3.519531 -6.441406 -3.125 -7.101562 -2.625 -7.875 L 1.9375 -14.625 L 25 -47.59375 C 26.4375 -47.394531 27.820312 -47.394531 29.15625 -47.59375 C 10.175781 -21.21875 0.347656 -7.523438 -0.328125 -6.515625 C -1.003906 -5.515625 -1.5 -4.757812 -1.8125 -4.25 C -2.132812 -3.738281 -2.375 -3.328125 -2.53125 -3.015625 C -2.769531 -2.535156 -2.890625 -2.117188 -2.890625 -1.765625 Z M -2.890625 -1.765625 "/></g></g></g><g fill="#000000" fill-opacity="1"><g transform="translate(210.021156, 177.240092)"><g><path d="M 11.53125 -2.578125 C 10.269531 -1.773438 8.90625 -1.113281 7.4375 -0.59375 C 5.976562 -0.0820312 4.59375 0.171875 3.28125 0.171875 C 1.96875 0.171875 0.96875 0.0390625 0.28125 -0.21875 C -0.40625 -0.488281 -0.96875 -0.863281 -1.40625 -1.34375 C -3.269531 -3.375 -3.257812 -6.367188 -1.375 -10.328125 C -0.5625 -12.078125 0.664062 -13.671875 2.3125 -15.109375 C 3.96875 -16.554688 5.425781 -17.632812 6.6875 -18.34375 C 9.113281 -19.738281 11.390625 -20.4375 13.515625 -20.4375 C 15.628906 -20.4375 16.734375 -19.78125 16.828125 -18.46875 C 16.960938 -16.34375 14.378906 -14.023438 9.078125 -11.515625 C 7.117188 -10.597656 4.660156 -9.65625 1.703125 -8.6875 C 0.523438 -6.769531 -0.0625 -5.207031 -0.0625 -4 C -0.0625 -2.800781 0.25 -1.945312 0.875 -1.4375 C 1.5 -0.9375 2.414062 -0.6875 3.625 -0.6875 C 4.832031 -0.6875 6.132812 -0.941406 7.53125 -1.453125 C 8.9375 -1.972656 10.25 -2.628906 11.46875 -3.421875 C 12.695312 -4.222656 13.804688 -5.09375 14.796875 -6.03125 C 15.796875 -6.96875 16.675781 -7.863281 17.4375 -8.71875 C 18.207031 -9.570312 18.832031 -10.3125 19.3125 -10.9375 C 19.800781 -11.5625 20.132812 -11.953125 20.3125 -12.109375 L 20.953125 -11.609375 C 20.691406 -11.390625 20.296875 -10.941406 19.765625 -10.265625 C 19.242188 -9.585938 18.578125 -8.816406 17.765625 -7.953125 C 16.960938 -7.085938 16.035156 -6.175781 14.984375 -5.21875 C 13.941406 -4.269531 12.789062 -3.390625 11.53125 -2.578125 Z M 2.390625 -9.734375 C 8.390625 -11.835938 12.257812 -13.929688 14 -16.015625 C 14.570312 -16.710938 14.859375 -17.390625 14.859375 -18.046875 C 14.859375 -19.160156 14.34375 -19.71875 13.3125 -19.71875 C 11.476562 -19.71875 9.1875 -18.117188 6.4375 -14.921875 C 4.53125 -12.691406 3.179688 -10.960938 2.390625 -9.734375 Z M 2.390625 -9.734375 "/></g></g></g><g fill="#000000" fill-opacity="1"><g transform="translate(230.129775, 177.240092)"><g><path d="M 6.125 5.015625 C 14.476562 0.796875 21.644531 -4.910156 27.625 -12.109375 L 28.234375 -11.609375 C 21.878906 -3.929688 14.128906 2.066406 4.984375 6.390625 L -0.328125 12.734375 C -4.804688 17.828125 -8.445312 21.019531 -11.25 22.3125 C -12.976562 23.09375 -14.976562 23.484375 -17.25 23.484375 C -18.5 23.484375 -19.398438 23.054688 -19.953125 22.203125 C -20.335938 21.617188 -20.347656 20.914062 -19.984375 20.09375 C -19.628906 19.269531 -19.140625 18.519531 -18.515625 17.84375 C -17.890625 17.164062 -17.046875 16.4375 -15.984375 15.65625 C -14.929688 14.882812 -13.617188 14.050781 -12.046875 13.15625 C -8.828125 11.320312 -4.492188 9.253906 0.953125 6.953125 L 12.984375 -8 L 12.75 -8.109375 C 9.101562 -3.972656 5.835938 -1.398438 2.953125 -0.390625 C 2.097656 -0.0859375 1.363281 0.0625 0.75 0.0625 C -1.65625 0.0625 -2.898438 -1.238281 -2.984375 -3.84375 C -2.984375 -6.925781 -1.800781 -9.851562 0.5625 -12.625 C 4.84375 -17.832031 9.5 -20.4375 14.53125 -20.4375 C 15.84375 -20.4375 16.878906 -20.21875 17.640625 -19.78125 C 18.867188 -19.082031 19.144531 -17.898438 18.46875 -16.234375 L 21.28125 -19.84375 C 21.851562 -19.6875 22.378906 -19.609375 22.859375 -19.609375 C 24.015625 -19.609375 24.847656 -19.644531 25.359375 -19.71875 Z M 18 -17.71875 C 17.957031 -18.914062 17.0625 -19.515625 15.3125 -19.515625 C 13.4375 -19.515625 10.769531 -17.882812 7.3125 -14.625 C 6.132812 -13.488281 4.867188 -12.078125 3.515625 -10.390625 C 0.796875 -7.003906 -0.539062 -4.335938 -0.5 -2.390625 C -0.46875 -1.804688 -0.34375 -1.398438 -0.125 -1.171875 C 0.09375 -0.941406 0.46875 -0.828125 1 -0.828125 C 1.53125 -0.828125 2.210938 -0.988281 3.046875 -1.3125 C 3.878906 -1.644531 4.832031 -2.203125 5.90625 -2.984375 C 8.394531 -4.753906 11.019531 -7.25 13.78125 -10.46875 L 16.109375 -13.3125 C 17.367188 -15.132812 18 -16.601562 18 -17.71875 Z M -0.09375 8.234375 C -10.25 12.691406 -16.285156 16.210938 -18.203125 18.796875 C -18.878906 19.734375 -19.21875 20.628906 -19.21875 21.484375 C -19.21875 21.703125 -19.03125 21.953125 -18.65625 22.234375 C -18.289062 22.523438 -17.78125 22.671875 -17.125 22.671875 C -16.46875 22.671875 -15.8125 22.585938 -15.15625 22.421875 C -14.5 22.253906 -13.8125 21.96875 -13.09375 21.5625 C -12.382812 21.15625 -11.609375 20.597656 -10.765625 19.890625 C -9.929688 19.179688 -8.992188 18.296875 -7.953125 17.234375 C -6.910156 16.171875 -5.738281 14.898438 -4.4375 13.421875 Z M -0.09375 8.234375 "/></g></g></g><g fill="#000000" fill-opacity="1"><g transform="translate(257.518071, 177.240092)"><g><path d="M 11.90625 0.0625 C 9.914062 0.0625 8.921875 -0.554688 8.921875 -1.796875 C 8.921875 -2.804688 9.5 -4.078125 10.65625 -5.609375 L 12.53125 -8 L 12.234375 -8.109375 C 8.890625 -3.992188 5.738281 -1.410156 2.78125 -0.359375 C 1.957031 -0.078125 1.25 0.0625 0.65625 0.0625 C -1.789062 0.0625 -3.015625 -1.238281 -3.015625 -3.84375 C -3.015625 -6.90625 -1.789062 -9.832031 0.65625 -12.625 C 4.28125 -16.84375 7.921875 -19.335938 11.578125 -20.109375 C 12.671875 -20.328125 13.601562 -20.4375 14.375 -20.4375 C 15.15625 -20.4375 15.769531 -20.378906 16.21875 -20.265625 C 16.664062 -20.160156 17.054688 -20.007812 17.390625 -19.8125 C 18.109375 -19.351562 18.46875 -18.789062 18.46875 -18.125 C 18.46875 -17.457031 18.347656 -16.828125 18.109375 -16.234375 L 21.03125 -19.84375 C 21.570312 -19.6875 22.070312 -19.609375 22.53125 -19.609375 C 23.695312 -19.609375 24.539062 -19.644531 25.0625 -19.71875 L 15.015625 -7.609375 C 12.617188 -4.828125 11.421875 -2.867188 11.421875 -1.734375 C 11.421875 -1.097656 11.800781 -0.78125 12.5625 -0.78125 C 13.320312 -0.78125 14.191406 -1.003906 15.171875 -1.453125 C 16.160156 -1.910156 17.140625 -2.5 18.109375 -3.21875 C 19.085938 -3.9375 20.035156 -4.734375 20.953125 -5.609375 C 21.878906 -6.484375 22.734375 -7.335938 23.515625 -8.171875 C 24.304688 -9.003906 25 -9.78125 25.59375 -10.5 L 27.03125 -12.109375 L 27.65625 -11.609375 L 26.140625 -9.875 C 20.410156 -3.25 15.664062 0.0625 11.90625 0.0625 Z M 3.640625 -10.6875 C 0.835938 -7.28125 -0.5625 -4.492188 -0.5625 -2.328125 C -0.5625 -1.328125 -0.113281 -0.828125 0.78125 -0.828125 C 3.675781 -0.828125 7.863281 -4.039062 13.34375 -10.46875 L 15.84375 -13.484375 C 17.039062 -15.296875 17.640625 -16.609375 17.640625 -17.421875 C 17.640625 -18.816406 16.941406 -19.515625 15.546875 -19.515625 C 13.660156 -19.515625 10.945312 -17.90625 7.40625 -14.6875 C 6.1875 -13.570312 4.929688 -12.238281 3.640625 -10.6875 Z M 3.640625 -10.6875 "/></g></g></g><g fill="#000000" fill-opacity="1"><g transform="translate(284.339518, 177.240092)"><g><path d="M 1.078125 -0.5625 C 0.535156 -0.664062 -0.0625 -0.71875 -0.71875 -0.71875 C -1.769531 -0.71875 -2.691406 -0.617188 -3.484375 -0.421875 L 6.859375 -15.21875 C 8.148438 -17.03125 8.816406 -18.101562 8.859375 -18.4375 C 8.941406 -19.09375 8.734375 -19.421875 8.234375 -19.421875 C 7.492188 -19.421875 5.664062 -17.601562 2.75 -13.96875 L 0.828125 -11.609375 C 0.671875 -11.523438 0.507812 -11.566406 0.34375 -11.734375 C 0.175781 -11.910156 0.128906 -12.035156 0.203125 -12.109375 C 0.785156 -12.734375 1.4375 -13.515625 2.15625 -14.453125 C 2.882812 -15.398438 3.648438 -16.3125 4.453125 -17.1875 C 6.398438 -19.351562 8.019531 -20.4375 9.3125 -20.4375 C 11.5 -20.4375 12.191406 -19.3125 11.390625 -17.0625 C 11.234375 -16.582031 10.890625 -15.96875 10.359375 -15.21875 L 4.09375 -6.5 L 4.234375 -6.171875 C 9.242188 -11.660156 12.804688 -15.289062 14.921875 -17.0625 C 16.929688 -18.738281 18.425781 -19.71875 19.40625 -20 C 20.394531 -20.289062 21.203125 -20.4375 21.828125 -20.4375 C 22.453125 -20.4375 22.988281 -20.347656 23.4375 -20.171875 C 23.882812 -19.992188 24.25 -19.765625 24.53125 -19.484375 C 25.039062 -18.960938 25.289062 -18.335938 25.28125 -17.609375 C 25.269531 -16.890625 25.128906 -16.148438 24.859375 -15.390625 C 24.597656 -14.640625 24.148438 -13.75 23.515625 -12.71875 C 22.179688 -10.582031 19.929688 -7.804688 16.765625 -4.390625 C 15.453125 -3.015625 14.765625 -2.210938 14.703125 -1.984375 C 14.648438 -1.753906 14.625 -1.582031 14.625 -1.46875 C 14.625 -1.007812 15.234375 -0.78125 16.453125 -0.78125 C 17.679688 -0.78125 18.828125 -1.03125 19.890625 -1.53125 C 20.953125 -2.039062 21.992188 -2.679688 23.015625 -3.453125 C 24.046875 -4.234375 25.019531 -5.085938 25.9375 -6.015625 C 26.863281 -6.941406 27.695312 -7.828125 28.4375 -8.671875 C 29.175781 -9.515625 29.789062 -10.25 30.28125 -10.875 C 30.78125 -11.5 31.117188 -11.910156 31.296875 -12.109375 L 31.921875 -11.609375 C 31.722656 -11.390625 31.363281 -10.953125 30.84375 -10.296875 C 30.332031 -9.640625 29.691406 -8.882812 28.921875 -8.03125 C 28.160156 -7.175781 27.296875 -6.269531 26.328125 -5.3125 C 25.367188 -4.351562 24.351562 -3.476562 23.28125 -2.6875 C 20.769531 -0.851562 18.5 0.0625 16.46875 0.0625 C 14.675781 0.0625 13.429688 -0.382812 12.734375 -1.28125 C 12.515625 -1.5625 12.40625 -1.890625 12.40625 -2.265625 C 12.40625 -2.640625 12.457031 -3.070312 12.5625 -3.5625 C 12.675781 -4.050781 12.945312 -4.675781 13.375 -5.4375 C 14.300781 -7.039062 15.625 -8.804688 17.34375 -10.734375 C 19.070312 -12.671875 20.203125 -13.976562 20.734375 -14.65625 C 21.273438 -15.332031 21.703125 -15.914062 22.015625 -16.40625 C 22.617188 -17.363281 22.921875 -18.101562 22.921875 -18.625 C 22.921875 -19.332031 22.441406 -19.6875 21.484375 -19.6875 C 19.515625 -19.6875 16.257812 -17.460938 11.71875 -13.015625 C 9.4375 -10.785156 6.8125 -7.847656 3.84375 -4.203125 Z M 1.078125 -0.5625 "/></g></g></g><g fill="#000000" fill-opacity="1"><g transform="translate(315.427323, 177.240092)"><g><path d="M 15.390625 -17.9375 C 15.359375 -19.082031 14.632812 -19.65625 13.21875 -19.65625 C 10.332031 -19.65625 6.601562 -16.65625 2.03125 -10.65625 C 0.132812 -8.144531 -0.8125 -5.875 -0.8125 -3.84375 C -0.8125 -2.96875 -0.570312 -2.300781 -0.09375 -1.84375 C 0.738281 -1.070312 1.804688 -0.6875 3.109375 -0.6875 C 4.421875 -0.6875 5.804688 -0.953125 7.265625 -1.484375 C 8.722656 -2.023438 10.078125 -2.703125 11.328125 -3.515625 C 12.585938 -4.335938 13.734375 -5.226562 14.765625 -6.1875 C 15.804688 -7.15625 16.703125 -8.0625 17.453125 -8.90625 C 18.210938 -9.75 18.8125 -10.46875 19.25 -11.0625 C 19.6875 -11.664062 19.941406 -12.015625 20.015625 -12.109375 L 20.671875 -11.609375 L 19.875 -10.53125 C 16.132812 -5.613281 11.957031 -2.320312 7.34375 -0.65625 C 5.789062 -0.101562 4.328125 0.171875 2.953125 0.171875 C 1.578125 0.171875 0.503906 0.0351562 -0.265625 -0.234375 C -1.046875 -0.515625 -1.691406 -0.894531 -2.203125 -1.375 C -3.203125 -2.34375 -3.703125 -3.554688 -3.703125 -5.015625 C -3.703125 -7.859375 -2.46875 -10.753906 0 -13.703125 C 1.925781 -16.003906 4.210938 -17.769531 6.859375 -19 C 9.003906 -20 11.09375 -20.476562 13.125 -20.4375 C 14.914062 -20.375 16.050781 -19.769531 16.53125 -18.625 C 17.007812 -17.445312 16.75 -16.367188 15.75 -15.390625 C 15.09375 -14.710938 14.457031 -14.375 13.84375 -14.375 C 12.414062 -14.375 11.679688 -14.960938 11.640625 -16.140625 C 11.617188 -16.703125 11.832031 -17.164062 12.28125 -17.53125 C 12.726562 -17.894531 13.171875 -18.097656 13.609375 -18.140625 C 14.242188 -18.179688 14.835938 -18.070312 15.390625 -17.8125 Z M 15.390625 -17.9375 "/></g></g></g><g fill="#000000" fill-opacity="1"><g transform="translate(335.267417, 177.240092)"><g><path d="M 11.53125 -2.578125 C 10.269531 -1.773438 8.90625 -1.113281 7.4375 -0.59375 C 5.976562 -0.0820312 4.59375 0.171875 3.28125 0.171875 C 1.96875 0.171875 0.96875 0.0390625 0.28125 -0.21875 C -0.40625 -0.488281 -0.96875 -0.863281 -1.40625 -1.34375 C -3.269531 -3.375 -3.257812 -6.367188 -1.375 -10.328125 C -0.5625 -12.078125 0.664062 -13.671875 2.3125 -15.109375 C 3.96875 -16.554688 5.425781 -17.632812 6.6875 -18.34375 C 9.113281 -19.738281 11.390625 -20.4375 13.515625 -20.4375 C 15.628906 -20.4375 16.734375 -19.78125 16.828125 -18.46875 C 16.960938 -16.34375 14.378906 -14.023438 9.078125 -11.515625 C 7.117188 -10.597656 4.660156 -9.65625 1.703125 -8.6875 C 0.523438 -6.769531 -0.0625 -5.207031 -0.0625 -4 C -0.0625 -2.800781 0.25 -1.945312 0.875 -1.4375 C 1.5 -0.9375 2.414062 -0.6875 3.625 -0.6875 C 4.832031 -0.6875 6.132812 -0.941406 7.53125 -1.453125 C 8.9375 -1.972656 10.25 -2.628906 11.46875 -3.421875 C 12.695312 -4.222656 13.804688 -5.09375 14.796875 -6.03125 C 15.796875 -6.96875 16.675781 -7.863281 17.4375 -8.71875 C 18.207031 -9.570312 18.832031 -10.3125 19.3125 -10.9375 C 19.800781 -11.5625 20.132812 -11.953125 20.3125 -12.109375 L 20.953125 -11.609375 C 20.691406 -11.390625 20.296875 -10.941406 19.765625 -10.265625 C 19.242188 -9.585938 18.578125 -8.816406 17.765625 -7.953125 C 16.960938 -7.085938 16.035156 -6.175781 14.984375 -5.21875 C 13.941406 -4.269531 12.789062 -3.390625 11.53125 -2.578125 Z M 2.390625 -9.734375 C 8.390625 -11.835938 12.257812 -13.929688 14 -16.015625 C 14.570312 -16.710938 14.859375 -17.390625 14.859375 -18.046875 C 14.859375 -19.160156 14.34375 -19.71875 13.3125 -19.71875 C 11.476562 -19.71875 9.1875 -18.117188 6.4375 -14.921875 C 4.53125 -12.691406 3.179688 -10.960938 2.390625 -9.734375 Z M 2.390625 -9.734375 "/></g></g></g></svg>